<?xml version="1.0" encoding="utf-8"?>
<!-- Generator: Adobe Illustrator 17.0.0, SVG Export Plug-In . SVG Version: 6.00 Build 0)  -->
<!DOCTYPE svg PUBLIC "-//W3C//DTD SVG 1.1//EN" "http://www.w3.org/Graphics/SVG/1.1/DTD/svg11.dtd">
<svg version="1.1" id="Layer_1" xmlns="http://www.w3.org/2000/svg" xmlns:xlink="http://www.w3.org/1999/xlink" x="0px" y="0px"
	 width="90px" height="77.583px" viewBox="0 0 90 77.583" enable-background="new 0 0 90 77.583" xml:space="preserve">
<polygon fill="#FFFFFF" points="80.199,0 50.018,39.613 20.136,0 10,0 10,45.562 0,45.562 0,54.562 10,54.562 10,60.083 0,60.083 
	0,69.083 10,69.083 10,77.583 19,77.583 19,69.083 29.333,69.083 29.333,60.083 19,60.083 19,54.562 29.333,54.562 29.333,45.562 
	19,45.562 19,13.438 49.982,54.51 81,13.799 81,77.583 90,77.583 90,0 "/>
</svg>
